<svg id="visual" class="headerBG" viewBox="0 0 800 240" width="800" height="240" xmlns="http://www.w3.org/2000/svg" xmlns:xlink="http://www.w3.org/1999/xlink" version="1.1"><rect x="0" y="0" width="800" height="240" fill="#00000000" class="primaryColor"></rect><path d="M0 104L33.3 111.2C66.7 118.3 133.3 132.7 200 135.3C266.7 138 333.3 129 400 123.5C466.7 118 533.3 116 600 129.8C666.7 143.7 733.3 173.3 766.7 188.2L800 203L800 241L766.7 241C733.3 241 666.7 241 600 241C533.3 241 466.7 241 400 241C333.3 241 266.7 241 200 241C133.3 241 66.7 241 33.3 241L0 241Z" fill="#ffffff" stroke-linecap="round" stroke-linejoin="miter"></path></svg>