<?xml version="1.0" encoding="utf-8"?>
<!-- Generator: Adobe Illustrator 16.0.0, SVG Export Plug-In . SVG Version: 6.00 Build 0)  -->
<!DOCTYPE svg PUBLIC "-//W3C//DTD SVG 1.1//EN" "http://www.w3.org/Graphics/SVG/1.1/DTD/svg11.dtd">
<svg version="1.1" id="Layer_1" xmlns="http://www.w3.org/2000/svg" xmlns:xlink="http://www.w3.org/1999/xlink" x="0px" y="0px"
	 width="224.957px" height="31.046px" viewBox="0 0 224.957 31.046" enable-background="new 0 0 224.957 31.046"
	 xml:space="preserve">
<g>
	<path fill="#002D73" d="M218.947,28.306l3.303-4.057v4.057H218.947z M222.25,30.914h0.853v-1.867h1.227v-0.74h-1.227v-5.314h-0.776
		l-4.449,5.414l0.227,0.641h4.146V30.914z M213.872,30.914h0.989l3.574-7.205v-0.662h-5.339v0.809h4.326L213.872,30.914z
		 M209.528,27.283c-1.145,0-1.933-0.719-1.933-1.717v-0.023c0-0.979,0.71-1.844,1.89-1.844c1.179,0,1.997,0.787,1.997,1.785v0.025
		C211.482,26.408,210.731,27.283,209.528,27.283 M209.296,31.046c1.941,0,3.267-1.764,3.267-4.258v-0.021
		c0-1.574-0.381-2.451-0.978-3.045c-0.505-0.506-1.168-0.811-2.067-0.811c-1.675,0-2.832,1.18-2.832,2.676v0.021
		c0,1.416,1.124,2.439,2.741,2.439c1.092,0,1.799-0.574,2.225-1.26c0.037,2.012-0.92,3.451-2.336,3.451
		c-0.697,0-1.291-0.283-1.934-0.844l-0.517,0.686C207.528,30.632,208.271,31.046,209.296,31.046 M204.646,30.914h0.877v-7.922
		h-0.653l-1.921,0.662l0.217,0.719l1.48-0.459V30.914z M194.776,27.667c0.121-1.127,0.887-1.957,1.887-1.957
		c1.147,0,1.754,0.898,1.857,1.957H194.776z M194.776,28.361h4.609c0.008-0.131,0.008-0.225,0.008-0.301
		c0-1.709-0.987-3.08-2.709-3.08c-1.604,0-2.784,1.35-2.784,3.033c0,1.809,1.302,3.033,2.899,3.033c1.101,0,1.809-0.436,2.393-1.09
		l-0.539-0.482c-0.472,0.496-1.034,0.82-1.834,0.82C195.796,30.294,194.897,29.587,194.776,28.361 M190.073,30.261
		c-1.102,0-2.043-0.877-2.043-2.248v-0.021c0-1.404,0.92-2.236,2.043-2.236c1.08,0,2.099,0.898,2.099,2.236v0.021
		C192.172,29.351,191.153,30.261,190.073,30.261 M189.917,31.037c1.068,0,1.752-0.596,2.225-1.291v1.168h0.864V22.71h-0.864v3.506
		c-0.45-0.65-1.146-1.236-2.225-1.236c-1.396,0-2.775,1.125-2.775,3.021v0.023C187.142,29.935,188.521,31.037,189.917,31.037
		 M184.482,31.027c1.157,0,2.069-0.643,2.069-1.744v-0.021c0-1.045-0.97-1.393-1.867-1.662c-0.775-0.236-1.493-0.451-1.493-1v-0.023
		c0-0.484,0.438-0.844,1.123-0.844c0.562,0,1.179,0.215,1.72,0.563l0.395-0.65c-0.598-0.395-1.384-0.643-2.092-0.643
		c-1.146,0-1.978,0.664-1.978,1.664v0.021c0,1.068,1.011,1.383,1.921,1.643c0.765,0.213,1.449,0.438,1.449,1.021v0.021
		c0,0.563-0.505,0.922-1.201,0.922c-0.684,0-1.382-0.268-2.011-0.742l-0.44,0.619C182.731,30.699,183.651,31.027,184.482,31.027
		 M177.108,27.667c0.122-1.127,0.886-1.957,1.887-1.957c1.146,0,1.754,0.898,1.853,1.957H177.108z M177.108,28.361h4.606
		c0.012-0.131,0.012-0.225,0.012-0.301c0-1.709-0.991-3.08-2.711-3.08c-1.605,0-2.786,1.35-2.786,3.033
		c0,1.809,1.306,3.033,2.899,3.033c1.101,0,1.807-0.436,2.396-1.09l-0.543-0.482c-0.47,0.496-1.033,0.82-1.831,0.82
		C178.13,30.294,177.23,29.587,177.108,28.361 M172.404,30.261c-1.102,0-2.046-0.877-2.046-2.248v-0.021
		c0-1.404,0.922-2.236,2.046-2.236c1.079,0,2.101,0.898,2.101,2.236v0.021C174.505,29.351,173.483,30.261,172.404,30.261
		 M172.245,31.037c1.07,0,1.754-0.596,2.227-1.291v1.168h0.864V22.71h-0.864v3.506c-0.449-0.65-1.146-1.236-2.227-1.236
		c-1.392,0-2.773,1.125-2.773,3.021v0.023C169.472,29.935,170.854,31.037,172.245,31.037"/>
	<path fill="#002D73" d="M208.687,17.576h4.729V8.123l7.358,9.453h4.184V0.345h-4.725v9.107l-7.089-9.107h-4.457V17.576z
		 M195.352,10.78l1.945-4.897l1.919,4.897H195.352z M187.695,17.576h5.022l1.231-3.079h6.643l1.257,3.079h5.12l-7.336-17.355h-4.602
		L187.695,17.576z M173.868,17.576h13.118v-4.185h-8.346V0.345h-4.772V17.576z M162.031,8.91V4.356h2.236
		c0.58,0,1.074,0.086,1.485,0.259c0.409,0.172,0.726,0.426,0.941,0.764c0.223,0.335,0.329,0.75,0.335,1.242v0.05
		c-0.006,0.455-0.112,0.848-0.335,1.181c-0.216,0.337-0.525,0.594-0.931,0.779c-0.414,0.185-0.898,0.275-1.468,0.279H162.031z
		 M157.258,17.576h4.773v-4.923h2.362c1.076,0,2.065-0.133,2.965-0.398c0.899-0.269,1.685-0.656,2.349-1.182
		c0.661-0.521,1.178-1.169,1.541-1.942c0.366-0.77,0.552-1.666,0.553-2.682v-0.05c-0.001-0.955-0.169-1.808-0.503-2.555
		c-0.334-0.746-0.818-1.383-1.442-1.904c-0.625-0.522-1.38-0.914-2.259-1.185c-0.877-0.272-1.868-0.41-2.957-0.41h-7.382V17.576z
		 M143.919,10.78l1.946-4.897l1.92,4.897H143.919z M136.264,17.576h5.021l1.23-3.079h6.648l1.256,3.079h5.12l-7.337-17.355H143.6
		L136.264,17.576z M120.118,17.576h4.776V13.12l1.751-1.945l4.329,6.401h5.738l-6.747-9.821l6.521-7.41h-5.659l-5.934,6.99v-6.99
		h-4.776V17.576z M102.739,13.612c-0.653-0.004-1.248-0.132-1.785-0.379c-0.539-0.245-1.003-0.586-1.392-1.017
		c-0.391-0.43-0.694-0.921-0.908-1.48c-0.208-0.558-0.316-1.149-0.317-1.776V8.91c0.001-0.627,0.106-1.214,0.315-1.767
		c0.203-0.554,0.501-1.043,0.886-1.466c0.38-0.426,0.841-0.757,1.375-1c0.533-0.242,1.123-0.365,1.779-0.37
		c0.659,0.005,1.263,0.133,1.807,0.377c0.54,0.247,1.003,0.587,1.399,1.018c0.388,0.432,0.691,0.923,0.906,1.481
		c0.208,0.558,0.316,1.149,0.32,1.777v0.048c-0.004,0.628-0.107,1.214-0.318,1.77c-0.203,0.553-0.498,1.042-0.885,1.462
		c-0.387,0.428-0.849,0.761-1.382,1.002C103.999,13.484,103.402,13.608,102.739,13.612 M102.692,17.919
		c1.065-0.004,2.071-0.158,3.012-0.455c0.935-0.303,1.79-0.727,2.56-1.272c0.772-0.55,1.432-1.197,1.988-1.939
		c0.56-0.748,0.986-1.568,1.289-2.463c0.299-0.893,0.451-1.838,0.455-2.83V8.91c-0.004-0.993-0.156-1.937-0.452-2.826
		c-0.299-0.889-0.721-1.707-1.273-2.449c-0.552-0.738-1.213-1.379-1.973-1.925c-0.764-0.541-1.62-0.958-2.553-1.259
		c-0.936-0.296-1.938-0.449-3.006-0.451c-1.065,0.002-2.07,0.155-3.008,0.455c-0.937,0.304-1.794,0.727-2.562,1.271
		C96.4,2.277,95.74,2.924,95.181,3.668c-0.558,0.747-0.986,1.565-1.289,2.461c-0.299,0.895-0.45,1.837-0.455,2.831v0.048
		c0.005,0.993,0.156,1.937,0.45,2.827c0.301,0.89,0.724,1.708,1.276,2.45c0.551,0.738,1.212,1.378,1.973,1.924
		c0.765,0.541,1.617,0.96,2.553,1.259C100.625,17.761,101.626,17.916,102.692,17.919 M86.033,17.576h4.801V0.345h-4.801V17.576z
		 M71.833,13.341V4.578h1.946c0.957,0.004,1.792,0.175,2.5,0.518c0.71,0.339,1.26,0.837,1.65,1.485
		c0.395,0.648,0.596,1.432,0.6,2.353v0.05c-0.004,0.931-0.205,1.719-0.6,2.368c-0.39,0.649-0.94,1.141-1.65,1.477
		c-0.708,0.341-1.543,0.508-2.5,0.512H71.833z M67.058,17.576h6.547c1.556-0.008,2.937-0.227,4.152-0.658
		c1.215-0.426,2.246-1.034,3.086-1.813c0.84-0.775,1.485-1.69,1.923-2.744c0.439-1.05,0.658-2.199,0.659-3.451V8.861
		c-0.001-1.248-0.22-2.391-0.65-3.429c-0.434-1.035-1.065-1.932-1.9-2.695c-0.837-0.759-1.856-1.347-3.055-1.761
		c-1.202-0.415-2.573-0.628-4.115-0.631h-6.647V17.576z M56.114,17.894c1.225,0,2.337-0.154,3.32-0.469
		c0.996-0.309,1.84-0.793,2.551-1.447c0.704-0.647,1.244-1.478,1.624-2.486c0.381-1.008,0.569-2.206,0.573-3.597v-9.55h-4.85v9.698
		c-0.004,0.803-0.134,1.468-0.396,1.99c-0.257,0.524-0.626,0.913-1.097,1.173c-0.477,0.254-1.034,0.382-1.678,0.382
		c-0.643,0-1.203-0.132-1.681-0.398c-0.47-0.269-0.838-0.673-1.097-1.214c-0.265-0.543-0.393-1.228-0.398-2.058V0.345h-4.851v9.673
		c0.005,1.347,0.191,2.516,0.56,3.503c0.367,0.993,0.897,1.81,1.591,2.458c0.693,0.644,1.534,1.13,2.513,1.445
		C53.781,17.74,54.883,17.894,56.114,17.894 M36.276,17.576h4.775V4.529h5.167V0.345H31.105v4.184h5.171V17.576z M23.232,17.871
		c1.052,0,2.002-0.127,2.856-0.381c0.853-0.254,1.583-0.621,2.199-1.105c0.612-0.483,1.083-1.069,1.41-1.764
		c0.335-0.693,0.498-1.479,0.501-2.361v-0.05c-0.003-0.805-0.153-1.493-0.446-2.076c-0.296-0.586-0.725-1.084-1.281-1.493
		c-0.558-0.411-1.231-0.76-2.023-1.051c-0.787-0.286-1.682-0.533-2.675-0.747c-0.593-0.135-1.083-0.258-1.474-0.377
		c-0.388-0.119-0.69-0.242-0.911-0.369c-0.218-0.124-0.375-0.259-0.461-0.41c-0.091-0.148-0.134-0.32-0.133-0.518V5.121
		c0-0.212,0.065-0.396,0.189-0.563c0.129-0.164,0.322-0.297,0.575-0.394c0.255-0.098,0.574-0.147,0.961-0.151
		c0.515,0,1.038,0.064,1.58,0.192c0.542,0.131,1.087,0.32,1.632,0.574c0.551,0.251,1.082,0.562,1.612,0.932l2.387-3.372
		c-0.93-0.752-1.98-1.322-3.143-1.708c-1.171-0.384-2.484-0.582-3.946-0.582c-1.037,0.004-1.966,0.139-2.786,0.409
		c-0.822,0.272-1.522,0.654-2.099,1.147c-0.58,0.495-1.017,1.072-1.327,1.748c-0.303,0.666-0.454,1.405-0.459,2.21v0.049
		c0.005,0.881,0.174,1.621,0.5,2.223c0.331,0.604,0.784,1.104,1.375,1.498c0.588,0.398,1.279,0.729,2.06,0.993
		c0.788,0.266,1.641,0.497,2.565,0.701c0.581,0.136,1.063,0.262,1.44,0.386c0.378,0.121,0.677,0.246,0.891,0.373
		c0.213,0.127,0.361,0.263,0.45,0.406c0.087,0.147,0.127,0.307,0.123,0.484v0.049c0,0.374-0.167,0.663-0.504,0.866
		c-0.333,0.211-0.82,0.312-1.466,0.316c-0.997,0-1.965-0.176-2.904-0.525c-0.935-0.348-1.83-0.865-2.684-1.543l-2.657,3.177
		c0.708,0.631,1.493,1.16,2.356,1.583c0.861,0.422,1.776,0.736,2.738,0.949C21.219,17.761,22.21,17.871,23.232,17.871 M0,17.576
		h13.981v-4.064H4.727V10.78h8.27V7.017h-8.27V4.406h9.131V0.345H0V17.576z"/>
</g>
</svg>
